<?xml version="1.0" encoding="UTF-8"?>
<svg id="Layer_2" xmlns="http://www.w3.org/2000/svg" version="1.1" xmlns:xlink="http://www.w3.org/1999/xlink" viewBox="0 0 267 79.9">
  <!-- Generator: Adobe Illustrator 30.2.1, SVG Export Plug-In . SVG Version: 2.1.1 Build 1)  -->
  <defs>
    <style>
      .st0 {
        fill: url(#linear-gradient2);
      }

      .st1 {
        clip-path: url(#clippath-4);
      }

      .st2 {
        fill: #fff;
      }

      .st3 {
        fill: url(#linear-gradient1);
      }

      .st4 {
        fill: none;
      }

      .st5 {
        clip-path: url(#clippath-1);
      }

      .st6 {
        clip-path: url(#clippath-5);
      }

      .st7 {
        clip-path: url(#clippath-3);
      }

      .st8 {
        fill: url(#linear-gradient4);
      }

      .st9 {
        fill: url(#linear-gradient5);
      }

      .st10 {
        fill: url(#linear-gradient3);
      }

      .st11 {
        clip-path: url(#clippath-2);
      }

      .st12 {
        fill: url(#linear-gradient);
      }

      .st13 {
        clip-path: url(#clippath);
      }

      .st14 {
        fill: #f05a28;
      }
    </style>
    <clipPath id="clippath">
      <path class="st4" d="M14.3,62.6l-1.9,2.5c-3.7,4.9.4,12,6.1,13.5.3,0,.7.2,1.1.2h20.8c-2.2-1.2-4.2-3.2-5.3-5.4l-6.7-11.5h-8c-2.2,0-3.7-2-2.6-3.9l-3.6,4.7h0Z"/>
    </clipPath>
    <linearGradient id="linear-gradient" x1="-1179.2" y1="-4892.4" x2="-1178.2" y2="-4892.4" gradientTransform="translate(34716.5 144051.2) scale(29.4)" gradientUnits="userSpaceOnUse">
      <stop offset="0" stop-color="#a41e22"/>
      <stop offset="1" stop-color="#f05a28"/>
    </linearGradient>
    <clipPath id="clippath-1">
      <path class="st4" d="M14.3,62.6l-1.9,2.5c-3.7,4.9.4,12,6.1,13.5.3,0,.7.2,1.1.2h20.8c-2.2-1.2-4.2-3.2-5.3-5.4l-6.7-11.5h-8c-2.2,0-3.7-2-2.6-3.9l-3.6,4.7h0Z"/>
    </clipPath>
    <linearGradient id="linear-gradient1" x1="-1188.5" y1="-4897.9" x2="-1187.5" y2="-4897.9" gradientTransform="translate(52861.6 217878.5) scale(44.5)" gradientUnits="userSpaceOnUse">
      <stop offset="0" stop-color="#a41e22"/>
      <stop offset="1" stop-color="#f05a28"/>
    </linearGradient>
    <clipPath id="clippath-2">
      <path class="st4" d="M5.4,46c-4.9,6.8-7.3,13.5-3.4,21.5,3.3,6.6,9.9,11.3,17.7,11.3-.4,0-.8-.1-1.1-.2-5.7-1.5-9.8-8.6-6.1-13.5l1.9-2.5,3.6-4.7L49.9,15.5,38.8,0,5.4,46Z"/>
    </clipPath>
    <linearGradient id="linear-gradient2" x1="-1205.9" y1="-4898.9" x2="-1204.9" y2="-4898.9" gradientTransform="translate(117735.4 478365.2) scale(97.6)" gradientUnits="userSpaceOnUse">
      <stop offset="0" stop-color="#f05a28"/>
      <stop offset="1" stop-color="#a41e22"/>
    </linearGradient>
    <clipPath id="clippath-3">
      <path class="st4" d="M48,67.2l-3.3,5.5c-1,1.4-2.7,2.1-4.4,1.8-.9-.2-1.8-.6-2.4-1.3,1,1.7,2.4,3.1,4,4,1.8,1.1,3.8,1.6,5.9,1.6,2,0,4.1-.5,5.9-1.5,1.5-.9,2.9-2.1,4-3.7l7.6-12.5-7.3-10.5-10,16.5h0Z"/>
    </clipPath>
    <linearGradient id="linear-gradient3" x1="-1176.7" y1="-4890.9" x2="-1175.7" y2="-4890.9" gradientTransform="translate(-132932.3 32046.3) rotate(90) scale(27.2)" gradientUnits="userSpaceOnUse">
      <stop offset="0" stop-color="#a41e22"/>
      <stop offset="1" stop-color="#f05a28"/>
    </linearGradient>
    <clipPath id="clippath-4">
      <path class="st4" d="M48,67.2l-3.3,5.5c-1,1.4-2.7,2.1-4.4,1.8-.9-.2-1.8-.6-2.4-1.3,1,1.7,2.4,3.1,4,4,1.8,1.1,3.8,1.6,5.9,1.6,2,0,4.1-.5,5.9-1.5,1.5-.9,2.9-2.1,4-3.7l7.6-12.5-7.3-10.5-10,16.5h0Z"/>
    </clipPath>
    <linearGradient id="linear-gradient4" x1="-1176.7" y1="-4891.1" x2="-1175.7" y2="-4891.1" gradientTransform="translate(-132936.2 32046.6) rotate(90) scale(27.2)" gradientUnits="userSpaceOnUse">
      <stop offset="0" stop-color="#a41e22"/>
      <stop offset="1" stop-color="#f05a28"/>
    </linearGradient>
    <clipPath id="clippath-5">
      <path class="st4" d="M38.8,37c-2.2,2.6-2.4,3.2-3.6,4.7-1.3,1.6-4.7,6.2-5.5,8.1-.8,1.9-1,4-.7,6.1,0,.7.3,1.4.5,2.1v.3c0,0,.1,0,.1,0,.4,1,.7,1.5,1.3,2.6,0,.2.7,1.2.7,1.2l6.1,10.8c0,.1.1.2.2.3.6.7,1.5,1.1,2.4,1.3,1.7.3,3.4-.4,4.4-1.8l3.3-5.5h0l-1.9-3.4-.7-1.2,1.1-1.5,2.3-3,3.3-4.3-3.4-5.5-6.7,8.1-1.1-2.1-.7-1.2,1-1.3,8.7-10.9-6.7-10.3-4.4,6.2h0Z"/>
    </clipPath>
    <linearGradient id="linear-gradient5" x1="-1236.6" y1="-4900.3" x2="-1235.6" y2="-4900.3" gradientTransform="translate(148028.1 -37276.9) rotate(-90) scale(30.2)" gradientUnits="userSpaceOnUse">
      <stop offset="0" stop-color="#f05a28"/>
      <stop offset=".3" stop-color="#df4c26"/>
      <stop offset=".8" stop-color="#b32a23"/>
      <stop offset="1" stop-color="#a41e22"/>
    </linearGradient>
  </defs>
  <g id="Layer_1-2">
    <g>
      <path class="st2" d="M77.7,79.6h0c0,0,1.3-6.9,1.3-6.9,0-.1,0-.2.2-.2h2.9c0,0,.1,0,.1.1h0c0,0-.1.6-.1.6,0,.1,0,.2-.2.2h-2.1l-.4,2.3h1.6c0,0,.1,0,.1.1h0s-.1.6-.1.6c0,.1-.1.2-.2.2h-1.6l-.6,2.9c0,.1,0,.2-.2.2h-.7c0,0-.1,0-.1,0,0,0,0,0,0,0"/>
      <path class="st2" d="M82.9,78.5c0,0,0-.2,0-.3l1.1-5.4c0-.1,0-.2.2-.2h.8c.1,0,.1,0,.1.1h0c0,0-1,5.5-1,5.5,0,0,0,.1,0,.2,0,.1,0,.3.2.4.1.2.3.3.6.3.5,0,1-.4,1.1-.9l1-5.4c0,0,0-.2.2-.2h.7c.1,0,.1,0,.1.2h0c0,0-1.1,5.5-1.1,5.5-.2.9-1.2,1.7-2.3,1.7s-1.4-.4-1.6-1c0-.1,0-.2,0-.4"/>
      <path class="st2" d="M88.7,79.6h0c0,0,1.3-6.9,1.3-6.9,0-.1.1-.2.2-.2h3.1c0,0,.1,0,.1.1h0c0,0-.1.6-.1.6,0,.1-.1.2-.2.2h-2.2l-.4,2.2h1.8c0,0,.1,0,.1.1h0s-.1.6-.1.6c0,.1-.1.2-.2.2h-1.8l-.4,2.3h2.2c0,0,.1,0,.1,0h0s-.1.6-.1.6c0,.1-.1.2-.2.2h-3.1c0,0-.1,0-.1,0,0,0,0,0,0,0"/>
      <path class="st2" d="M94,79.6h0c0,0,1.3-6.9,1.3-6.9,0-.1,0-.2.2-.2h.7c.1,0,.1,0,.1.1h0c0,0-1.2,6.2-1.2,6.2h2c0,0,.1,0,.1.1h0s-.1.6-.1.6c0,.1-.1.2-.2.2h-2.9c0,0-.1,0-.1,0,0,0,0,0,0,0"/>
      <path class="st2" d="M99.1,79.6h0c0,0,1.3-6.9,1.3-6.9,0-.1,0-.2.2-.2h.7c.1,0,.1,0,.1.1h0c0,0-1.2,6.2-1.2,6.2h2c0,0,.1,0,.1.1h0s-.1.6-.1.6c0,.1-.1.2-.2.2h-2.9c0,0-.1,0-.1,0,0,0,0,0,0,0"/>
      <path class="st2" d="M104.2,79.6h0c0,0,1.3-6.9,1.3-6.9,0-.1.1-.2.2-.2h.7c.1,0,.1,0,.1.1h0c0,0-1.3,6.9-1.3,6.9,0,.1,0,.2-.2.2h-.7c0,0-.1,0-.1,0,0,0,0,0,0,0"/>
      <path class="st2" d="M107.4,79.6h0c0,0,1-5.5,1-5.5.2-.9,1.2-1.7,2.3-1.7s1,.2,1.3.5.4.7.4.9,0,.2,0,.3l-1,5.4c0,0,0,.2-.2.2h-.7c-.1,0-.1,0-.1-.1h0c0,0,1-5.4,1-5.4,0,0,0-.1,0-.2,0-.1,0-.3-.1-.4s-.3-.2-.6-.2c-.5,0-.9.4-1.1.9l-1,5.4c0,0,0,.2-.2.2h-.8s0,0,0,0c0,0,0,0,0,0"/>
      <path class="st2" d="M113.6,78.5c0,0,0-.2,0-.3l.8-4c.2-1,1.2-1.7,2.3-1.7s1.1.2,1.3.6c.2.3.2.7.2.8s0,.2,0,.3v.4c-.1.2-.2.2-.3.2h-.7c-.1,0-.1,0-.1,0s0,0,0,0v-.4c0,0,0-.1,0-.2,0,0,0-.3-.1-.4s-.3-.3-.6-.3c-.5,0-.9.4-1,.8l-.3,1.6-.4,2.3c0,0,0,.1,0,.2,0,.1,0,.3.2.4.1.2.3.2.6.2.5,0,1-.4,1.1-.8l.2-1.3h-.6c-.1,0-.1,0-.1-.1h0c0,0,.1-.6.1-.6,0-.1,0-.2.2-.2h1.4c.1,0,.1,0,.1.1h0c0,0-.4,2-.4,2h0c-.2,1.1-1.2,1.7-2.2,1.7s-1.4-.4-1.6-1c0-.1,0-.2,0-.4"/>
      <path class="st2" d="M122.8,78.5c0-.1,0-.2,0-.4v-.3c0-.1.1-.2.3-.2h.7c.1,0,.1,0,.1.1s0,0,0,0v.2c0,0,0,.2,0,.2,0,.2,0,.3.2.5.1.2.4.2.6.2.5,0,1-.3,1.1-.9,0-.1,0-.2,0-.3s0-.3-.1-.5c-.1-.2-.4-.5-.8-.8-.4-.4-.8-.7-1-1-.2-.3-.2-.6-.2-.8s0-.3,0-.4c.3-1.4,1.6-1.8,2.2-1.8s1,.2,1.3.5c.3.3.3.7.3.9s0,.2,0,.3v.3c0,.1-.1.2-.3.2h-.7c-.1,0-.1,0-.1,0s0,0,0,0v-.3c0,0,0-.1,0-.2,0,0,0-.2-.1-.4-.1-.2-.3-.3-.6-.3s-.9.2-1.1.9c0,0,0,.1,0,.2,0,.2,0,.3.2.6.1.2.4.4.6.6.5.4.9.7,1.1,1.1s.3.7.3,1,0,.3,0,.5c-.2.9-1.1,1.7-2.3,1.7s-1.4-.4-1.6-1.1c0-.1,0-.2,0-.3"/>
      <path class="st2" d="M128.5,78.5c0,0,0-.2,0-.3l1.1-5.4c0-.1.1-.2.2-.2h.8c.1,0,.1,0,.1.1h0c0,0-1,5.5-1,5.5,0,0,0,.1,0,.2,0,.1,0,.3.1.4.1.2.3.3.6.3.5,0,1-.4,1.1-.9l1-5.4c0,0,0-.2.2-.2h.7c.1,0,.1,0,.1.2h0c0,0-1,5.5-1,5.5-.2.9-1.2,1.7-2.3,1.7s-1.4-.4-1.6-1c0-.1,0-.2,0-.4"/>
      <path class="st2" d="M134.4,78.5c0,0,0-.2,0-.3l.8-4c.2-1,1.2-1.7,2.3-1.7s1,.2,1.3.5c.2.3.3.7.3.9s0,.2,0,.3v.4c-.1.2-.2.2-.3.2h-.7c-.1,0-.1,0-.1-.1h0c0,0,0-.5,0-.5,0,0,0-.1,0-.2,0,0,0-.3-.1-.4s-.3-.3-.6-.3c-.5,0-1,.4-1.1.9l-.8,3.9c0,0,0,.1,0,.2,0,.1,0,.3.1.4.1.2.3.3.6.3.5,0,.9-.4,1-.9v-.5c.1-.2.2-.2.3-.2h.7c.1,0,.1,0,.1.1s0,0,0,0v.6c-.3,1-1.3,1.7-2.3,1.7s-1.4-.4-1.6-1c0-.1,0-.2,0-.4"/>
      <path class="st2" d="M140.1,78.5c0,0,0-.2,0-.3l.8-4c.2-1,1.2-1.7,2.3-1.7s1,.2,1.3.5c.2.3.3.7.3.9s0,.2,0,.3v.4c-.1.2-.2.2-.3.2h-.7c-.1,0-.1,0-.1-.1h0c0,0,0-.5,0-.5,0,0,0-.1,0-.2,0,0,0-.3-.1-.4s-.3-.3-.6-.3c-.5,0-1,.4-1.1.9l-.8,3.9c0,0,0,.1,0,.2,0,.1,0,.3.1.4.1.2.3.3.6.3.5,0,.9-.4,1-.9v-.5c.1-.2.2-.2.3-.2h.7c.1,0,.1,0,.1.1s0,0,0,0v.6c-.3,1-1.3,1.7-2.3,1.7s-1.4-.4-1.6-1c0-.1,0-.2,0-.4"/>
      <path class="st2" d="M145.6,79.6h0c0,0,1.3-6.9,1.3-6.9,0-.1.1-.2.2-.2h3.1c0,0,.1,0,.1.1h0c0,0-.1.6-.1.6,0,.1-.1.2-.2.2h-2.2l-.4,2.2h1.8c0,0,.1,0,.1.1h0s-.1.6-.1.6c0,.1-.1.2-.2.2h-1.8l-.4,2.3h2.2c0,0,.1,0,.1,0h0s-.1.6-.1.6c0,.1-.1.2-.2.2h-3.1c0,0-.1,0-.1,0,0,0,0,0,0,0"/>
      <path class="st2" d="M151,78.5c0-.1,0-.2,0-.4v-.3c0-.1.1-.2.3-.2h.7c.1,0,.1,0,.1.1s0,0,0,0v.2c0,0,0,.2,0,.2,0,.2,0,.3.2.5.1.2.4.2.6.2.5,0,1-.3,1.1-.9,0-.1,0-.2,0-.3s0-.3-.1-.5c-.1-.2-.4-.5-.8-.8-.4-.4-.8-.7-1-1-.2-.3-.2-.6-.2-.8s0-.3,0-.4c.3-1.4,1.6-1.8,2.2-1.8s1,.2,1.3.5c.3.3.3.7.3.9s0,.2,0,.3v.3c0,.1-.1.2-.3.2h-.7c-.1,0-.1,0-.1,0s0,0,0,0v-.3c0,0,0-.1,0-.2,0,0,0-.2-.1-.4-.1-.2-.3-.3-.6-.3s-.9.2-1.1.9c0,0,0,.1,0,.2,0,.2,0,.3.2.6.1.2.4.4.6.6.5.4.9.7,1.1,1.1s.3.7.3,1,0,.3,0,.5c-.2.9-1.1,1.7-2.3,1.7s-1.4-.4-1.6-1.1c0-.1,0-.2,0-.3"/>
      <path class="st2" d="M156.6,78.5c0-.1,0-.2,0-.4v-.3c0-.1.1-.2.3-.2h.7c.1,0,.1,0,.1.1s0,0,0,0v.2c0,0,0,.2,0,.2,0,.2,0,.3.2.5s.4.2.6.2c.5,0,1-.3,1.1-.9,0-.1,0-.2,0-.3s0-.3-.1-.5c-.1-.2-.4-.5-.8-.8-.4-.4-.8-.7-1-1-.2-.3-.2-.6-.2-.8s0-.3,0-.4c.3-1.4,1.6-1.8,2.2-1.8s1,.2,1.3.5c.3.3.3.7.3.9s0,.2,0,.3v.3c0,.1-.1.2-.3.2h-.7c-.1,0-.1,0-.1,0s0,0,0,0v-.3c0,0,0-.1,0-.2,0,0,0-.2-.1-.4-.1-.2-.3-.3-.6-.3s-.9.2-1.1.9c0,0,0,.1,0,.2,0,.2,0,.3.2.6.1.2.4.4.6.6.5.4.9.7,1.1,1.1s.3.7.3,1,0,.3,0,.5c-.2.9-1.1,1.7-2.3,1.7s-1.4-.4-1.6-1.1c0-.1,0-.2,0-.3"/>
      <path class="st2" d="M162.1,79.6h0c0,0,1.3-6.9,1.3-6.9,0-.1.1-.2.2-.2h2.9c0,0,.1,0,.1.1h0c0,0-.1.6-.1.6,0,.1-.1.2-.2.2h-2.1l-.4,2.3h1.6c0,0,.1,0,.1.1h0s-.1.6-.1.6c0,.1-.1.2-.2.2h-1.6l-.6,2.9c0,.1,0,.2-.2.2h-.7c0,0-.1,0-.1,0,0,0,0,0,0,0"/>
      <path class="st2" d="M167.3,78.5c0,0,0-.2,0-.3l1.1-5.4c0-.1.1-.2.2-.2h.8c.1,0,.1,0,.1.1h0c0,0-1,5.5-1,5.5,0,0,0,.1,0,.2,0,.1,0,.3.1.4.1.2.3.3.6.3.5,0,1-.4,1.1-.9l1-5.4c0,0,0-.2.2-.2h.7c.1,0,.1,0,.1.2h0c0,0-1,5.5-1,5.5-.2.9-1.2,1.7-2.3,1.7s-1.4-.4-1.6-1c0-.1,0-.2,0-.4"/>
      <path class="st2" d="M173.1,79.6h0c0,0,1.3-6.9,1.3-6.9,0-.1,0-.2.2-.2h.7c.1,0,.1,0,.1.1h0c0,0-1.2,6.2-1.2,6.2h2c0,0,.1,0,.1.1h0s-.1.6-.1.6c0,.1-.1.2-.2.2h-2.9c0,0-.1,0-.1,0,0,0,0,0,0,0"/>
      <path class="st2" d="M181.2,79.2s0,0,0,0l.4-.4s.1,0,.1,0,.1,0,.1,0c.1.2.4.3.7.3.6,0,.9-.4,1.1-.9l1-5.3c0-.1.1-.2.2-.2h.7c.1,0,.1,0,.1.1s0,0,0,0l-1,5.3c-.2,1.1-1.2,1.8-2.2,1.8s-1.1-.2-1.3-.5c0,0,0,0,0-.1h0"/>
      <path class="st2" d="M186.8,78.5c0,0,0-.2,0-.3l.8-4c.2-1,1.2-1.7,2.2-1.7s1,.2,1.3.5.4.7.4.9,0,.2,0,.3l-.8,4c-.2,1-1.2,1.7-2.3,1.7s-1.4-.4-1.6-1c0-.1,0-.2,0-.4M187.9,78.3c0,.1,0,.3.1.4.1.2.3.2.6.2.5,0,1-.4,1.1-.8l.8-4c0,0,0-.1,0-.2,0-.1,0-.3-.1-.4-.1-.2-.3-.3-.6-.3-.5,0-1,.4-1.1.9l-.8,3.9c0,0,0,.1,0,.2"/>
      <path class="st2" d="M192.7,78.5c0,0,0-.2,0-.3l1-5.4c0-.1.1-.2.2-.2h.8c.1,0,.1,0,.1.1h0c0,0-1,5.5-1,5.5,0,0,0,.1,0,.2,0,.1,0,.3.1.4.1.2.3.3.6.3.5,0,1-.4,1.1-.9l1-5.4c0,0,0-.2.2-.2h.7c.1,0,.1,0,.1.2h0c0,0-1,5.5-1,5.5-.2.9-1.2,1.7-2.3,1.7s-1.4-.4-1.6-1c0-.1,0-.2,0-.4"/>
      <path class="st2" d="M198.5,79.6h0c0,0,1.3-6.9,1.3-6.9,0-.1.1-.2.2-.2h1.8c.6,0,1,.2,1.3.5.3.3.3.7.3.9s0,.2,0,.4v.7c-.3.7-.8,1.1-1.4,1.4.4.3.5.8.5,1.3s0,.3-.1.9l-.2.9c0,0,0,.2-.2.2h-.7c-.1,0-.2,0-.2-.2h0c0,0,.2-1.1.2-1.1,0-.2,0-.4,0-.6s0-.2,0-.3,0-.3-.2-.4c-.2-.3-.6-.4-1.1-.4h-.1l-.5,2.8c0,.1,0,.2-.2.2h-.7c-.1,0-.1,0-.1-.1M200.3,76h.8c.7,0,1-.3,1.1-.8v-.8c.2,0,.2-.2.2-.2,0-.2,0-.3-.2-.5s-.3-.2-.6-.2h-.9l-.5,2.5h0Z"/>
      <path class="st2" d="M204.4,79.6h0c0,0,1-5.5,1-5.5.2-.9,1.2-1.7,2.3-1.7s1,.2,1.3.5.4.7.4.9,0,.2,0,.3l-1,5.4c0,0,0,.2-.2.2h-.7c-.1,0-.1,0-.1-.1h0c0,0,1-5.4,1-5.4,0,0,0-.1,0-.2,0-.1,0-.3-.1-.4s-.3-.2-.6-.2c-.5,0-.9.4-1,.9l-1,5.4c0,0,0,.2-.2.2h-.8s0,0,0,0c0,0,0,0,0,0"/>
      <path class="st2" d="M210.5,79.6h0c0,0,1.3-6.9,1.3-6.9,0-.1.1-.2.2-.2h3.1c0,0,.1,0,.1.1h0c0,0-.1.6-.1.6,0,.1-.1.2-.2.2h-2.2l-.4,2.2h1.8c0,0,.1,0,.1.1h0s-.1.6-.1.6c0,.1-.1.2-.2.2h-1.8l-.4,2.3h2.2c0,0,.1,0,.1,0h0s-.1.6-.1.6c0,.1-.1.2-.2.2h-3.1c0,0-.1,0-.1,0,0,0,0,0,0,0"/>
      <path class="st2" d="M216.3,75.5c0,0,0-.2,0-.3l.5-2.5c0,0,0-.1.1-.1h.8c0,0,.1,0,.1,0h0s-.5,2.5-.5,2.5c0,0,0,.1,0,.2,0,.1,0,.3.1.4.1.2.3.2.6.2.5,0,1-.4,1-.8l.5-2.5c0,0,0-.1.1-.1h.8c0,0,.1,0,.1,0h0s-.5,2.5-.5,2.5c-.1.9-.9,1.5-1.7,1.7l-.5,2.8c0,.1,0,.2-.2.2h-.8c-.1,0-.1,0-.1-.1h0c0,0,.5-2.8.5-2.8-.6-.2-1-.5-1.1-1.1,0,0,0-.2,0-.3"/>
      <path class="st2" d="M221.4,78.5c0-.1,0-.2,0-.4v-.3c0-.1.1-.2.3-.2h.7c.1,0,.1,0,.1.1s0,0,0,0v.2c0,0,0,.2,0,.2,0,.2,0,.3.2.5.1.2.4.2.5.2.5,0,1-.3,1.1-.9,0-.1,0-.2,0-.3s0-.3-.1-.5c-.1-.2-.4-.5-.8-.8-.4-.4-.8-.7-1-1-.2-.3-.2-.6-.2-.8s0-.3,0-.4c.3-1.4,1.6-1.8,2.2-1.8s1,.2,1.3.5c.3.3.3.7.3.9s0,.2,0,.3v.3c0,.1-.1.2-.3.2h-.7c-.1,0-.1,0-.1,0s0,0,0,0v-.3c0,0,0-.1,0-.2,0,0,0-.2-.1-.4-.1-.2-.3-.3-.6-.3s-.9.2-1.1.9c0,0,0,.1,0,.2,0,.2,0,.3.2.6.1.2.4.4.6.6.5.4.9.7,1.1,1.1s.3.7.3,1,0,.3,0,.5c-.2.9-1.1,1.7-2.3,1.7s-1.4-.4-1.6-1.1c0-.1,0-.2,0-.3"/>
      <path class="st2" d="M78.9,68.9c0,0,0-.2,0-.2l5.5-28.4c.1-.5.4-.8,1-.8h4.8c.6,0,.6.3.6.6s0,.2,0,.2l-4.7,24h8.1c.4,0,.6.2.6.5s0,.2,0,.2l-.7,3.7c-.1.5-.4.8-.8.8h-13.7c-.5,0-.7-.2-.7-.6"/>
      <path class="st2" d="M95.4,64.3c0-.3,0-.7.1-1l.4-2.2,1.5-7.7c.7-3.6,4.9-6.6,9.4-6.6s4.1.7,5.2,1.9,1.4,2.5,1.4,3.5,0,.8-.1,1.2l-1.1,5.4c-.1.5-.6.8-1.1.8h-8.9l-.7,3.7c0,.1,0,.2,0,.3,0,.3,0,.7.4,1,.3.4.8.6,1.5.6,1.3,0,2.3-1,2.5-2v-.6c.2-.3.4-.5.9-.5h4.2c.4,0,.5.1.5.4s0,0,0,.2v.6c-.8,3.7-4.6,6.6-9.1,6.6s-5.9-1.6-6.7-4c-.2-.5-.2-1-.2-1.5M103,55.9h4.4l.5-2.5c0-.1,0-.2,0-.3,0-.4-.1-.7-.4-1.1-.3-.3-.7-.5-1.4-.5-1.3,0-2.4.9-2.6,1.9l-.5,2.5h0Z"/>
      <path class="st2" d="M111.9,64.3c0-.5,0-1,.1-1.5v-.5c1-4.6,5.1-6.5,9.1-6.5h2.8s.3-1.5.3-1.5c0-.2,0-.4,0-.6s0-.8-.4-1.3-1.1-1-2.1-1c-2,0-3.4.6-4.4,1.2-.3.2-.5.2-.7.2s-.3,0-.4-.3l-.7-2.4c0-.2,0-.3,0-.4,0-.3.2-.6.8-.9,1.9-1,4-1.9,7.4-1.9s3.9.6,5.2,1.8c1.3,1.2,1.7,2.6,1.7,3.8s0,.9-.1,1.4l-1.8,9.5c-1.1,5.4-7,6.7-9.5,6.7s-3.9-.5-5.3-1.7c-.7-.6-1.2-1.3-1.6-2.2-.2-.5-.3-1.1-.3-1.8M118.1,63.3c0,.3,0,.8.5,1.2.4.4.9.5,1.4.5,1,0,2.3-.6,2.5-2l.7-3.3h-1.1c-2.6,0-3.5,1.3-3.8,2.7v.3c-.1.2-.1.4-.1.6"/>
      <path class="st2" d="M128.6,68.9c0,0,0-.1,0-.2l3-15.2c.7-3.5,4.6-6.7,9.3-6.7s4.6.8,5.9,2c1.2,1.2,1.4,2.6,1.4,3.5s0,.8-.1,1.2l-.3,1.4-2.7,13.8c-.1.5-.4.7-.9.7h-4.6c-.4,0-.6-.2-.6-.5s0-.1,0-.2l2.9-15.2c0,0,0-.2,0-.3,0-.8-.5-1.6-1.8-1.6s-2.3.9-2.5,1.9l-2.9,15.1c0,.5-.4.8-.8.8h-4.7c-.2,0-.4,0-.5-.2-.1,0-.1-.2-.1-.4"/>
      <path class="st2" d="M147.2,64.4c0-.4,0-.7.1-1.1l1.9-9.9c.7-3.7,4.9-6.6,9.4-6.6s4.2.7,5.5,1.8c1.2,1.2,1.6,2.5,1.6,3.6s0,.8-.1,1.2l-1.9,9.9c-.8,3.9-4.9,6.6-9.5,6.6s-6-1.5-6.8-3.9c-.2-.5-.3-1-.3-1.5M153.5,63.5c0,.3.1.7.4,1.1.3.3.7.5,1.4.5,1.3,0,2.3-1,2.5-1.9l1.9-9.6c0-.1,0-.2,0-.3,0-.4-.1-.7-.4-1.1-.3-.4-.7-.5-1.4-.5-1.3,0-2.3,1-2.5,1.9l-1.9,9.6c0,.1,0,.2,0,.3"/>
      <path class="st14" d="M164.2,68.9c0,0,0-.2,0-.2l5.5-28.4c.1-.5.5-.8,1-.8h14.3c.4,0,.5.2.5.5s0,.2,0,.3l-.7,3.7c-.1.5-.4.8-.8.8h-8.8l-1.4,7h7c.4,0,.6.2.6.5s0,.2,0,.2l-.7,3.7c-.1.5-.5.7-.9.7h-7l-1.4,7.4h8.9c.4,0,.6.2.6.5s0,.1,0,.2l-.7,3.7c-.1.5-.5.8-.8.8h-14.5c-.5,0-.7-.2-.7-.6"/>
      <path class="st14" d="M180.9,68.9c0,0,0-.1,0-.2l3-15.2c.7-3.5,4.6-6.7,9.3-6.7s4.6.8,5.9,2c1.2,1.2,1.4,2.6,1.4,3.5s0,.8-.1,1.2l-.3,1.4-2.7,13.8c-.1.5-.4.7-.9.7h-4.6c-.4,0-.6-.2-.6-.5s0-.1,0-.2l2.9-15.2c0,0,0-.2,0-.3,0-.8-.5-1.6-1.8-1.6s-2.3.9-2.5,1.9l-2.9,15.1c0,.5-.4.8-.8.8h-4.7c-.2,0-.4,0-.5-.2-.1,0-.1-.2-.1-.4"/>
      <path class="st14" d="M199.6,64.3c0-.3,0-.7.1-1l.5-2.2,1.5-7.7c.7-3.6,4.9-6.6,9.4-6.6s4.1.7,5.2,1.9c1.2,1.2,1.4,2.5,1.4,3.5s0,.8-.1,1.2l-1.1,5.4c-.1.5-.6.8-1.1.8h-8.9l-.7,3.7c0,.1,0,.2,0,.3,0,.3,0,.7.4,1,.3.4.8.6,1.5.6,1.3,0,2.3-1,2.5-2v-.6c.2-.3.4-.5.9-.5h4.2c.4,0,.5.1.5.4s0,0,0,.2v.6c-.8,3.7-4.6,6.6-9.1,6.6s-5.9-1.6-6.7-4c-.2-.5-.2-1-.2-1.5M207.2,55.9h4.4l.5-2.5c0-.1,0-.2,0-.3,0-.4-.1-.7-.4-1.1-.3-.3-.7-.5-1.4-.5-1.3,0-2.4.9-2.6,1.9l-.5,2.5h0Z"/>
      <path class="st14" d="M215.4,68.9v-.2l2.8-14.3h0c1.1-5.5,6.1-7.6,9.9-7.6s1.9,0,2.6.2c.5.1.5.4.5.7s0,.1,0,.2l-.6,3.1c-.1.6-.7.8-1.3.8h-1.2c-2,0-3.5,1.3-4,3.4l-2.6,13.3c-.1.8-.8,1-1.2,1h-4.3c-.2,0-.4,0-.5-.2-.1-.1-.1-.2-.1-.4"/>
      <path class="st14" d="M227.4,67.8c0-.3,0-.5,0-.8v-.7c.5-1.7,1.6-3.3,2.8-4.5-.9-1.2-1-2.5-1-3.3s0-1,.2-1.6l.5-2.7c.9-4.4,5.1-7.3,9.6-7.3s2,.2,2.9.4h6.6c.5,0,.7.2.7.5s0,.1,0,.2l-.5,2.9c-.1.5-.3.7-.9.7h-1.9c0,.4.1.8.1,1.2s0,.6-.2,1.6l-.5,2.6c-1,4.8-5.1,7.5-9.7,7.5s-1.5,0-2.2-.2c-.4.4-.6.8-.7,1.4h0c0,.2,0,.3,0,.3,0,.6.5,1.2,1.6,1.2h4c1.7,0,3.2.2,4.2.9s1.2,1.8,1.2,2.7c0,.4,0,.9-.2,1.4l-.7,3.8c0,.4-.3.6-.8.6h-4.9c-.4,0-.5-.2-.5-.4s0,0,0-.1l.5-2.3c0-.2,0-.4,0-.5,0-.7-.3-1.3-1.7-1.3h-4.2s-.4,0-.4,0c-2.2,0-3.6-1.4-4-3.1,0-.3-.1-.6-.1-.9M235.4,57.9c0,.4.1.7.4,1.1.3.3.8.5,1.4.5,1.3,0,2.3-1,2.5-1.9l.8-3.9c0-.1,0-.2,0-.3,0-.4-.1-.7-.4-1.1-.3-.4-.7-.5-1.4-.5-1.3,0-2.3,1-2.5,1.9l-.8,4c0,.1,0,.2,0,.3"/>
      <path class="st14" d="M246,73.8c0-.2,0-.3.2-.5l1.9-2.6c.2-.2.4-.3.6-.3s.3,0,.5.2c.9.6,2.4,1.2,3.7,1.2s3.6-.7,4-3.1l.2-1.2c-1.2.6-2.5.9-3.7.9-1.9,0-3.5-.7-4.5-1.8-1-1.2-1.1-2.5-1.1-3.4s0-1,.1-1.5l.2-1.2h0s2.5-12.5,2.5-12.5c.1-.5.5-.7.9-.7h4.6c.4,0,.6.2.6.5s0,.1,0,.2l-2.7,13.8v.2c0,.8.5,1.6,1.8,1.6s2.4-1.2,2.6-2.2l2.6-13.1c.1-.7.8-1,1.1-1h4.4c.4,0,.6.2.6.6v.2l-3.2,16.5h0l-.8,4.3c-.9,4.5-4.4,7.5-10.1,7.5s-5.2-.8-6.6-1.8c-.2-.1-.3-.3-.3-.5h0c0-.1,0,0,0,0Z"/>
    </g>
    <g class="st13">
      <rect class="st12" x="8.7" y="57.9" width="31.7" height="20.9"/>
    </g>
    <g class="st5">
      <rect class="st3" x="8.7" y="57.9" width="31.7" height="20.9"/>
    </g>
    <g class="st11">
      <rect class="st0" x="-23.2" y="-4.3" width="94.4" height="87.5" transform="translate(-22.1 36.8) rotate(-55.4)"/>
    </g>
    <g class="st7">
      <rect class="st10" x="37.2" y="50.9" width="28.7" height="27.8" transform="translate(-14 115.4) rotate(-89.1)"/>
    </g>
    <g class="st1">
      <rect class="st8" x="37.2" y="50.9" width="28.7" height="27.8" transform="translate(-14 115.4) rotate(-89.1)"/>
    </g>
    <g class="st6">
      <rect class="st9" x="16.5" y="28.9" width="47.7" height="47.7" transform="translate(-25.5 44) rotate(-45)"/>
    </g>
  </g>
</svg>