<?xml version="1.0" encoding="UTF-8"?>
<svg id="Layer_2" data-name="Layer 2" xmlns="http://www.w3.org/2000/svg" viewBox="0 0 190.99 91.61">
  <defs>
    <style>
      .cls-1 {
        fill: #fff;
      }
    </style>
  </defs>
  <g id="Layer_1-2" data-name="Layer 1">
    <path class="cls-1" d="M138.05,68.5H0s.01-34.77.01-34.77h138.02s.02,34.77.02,34.77ZM30.13,57.24l-11.16-.02v-17.49s-6.44,0-6.44,0v23.11s17.63,0,17.63,0l-.03-5.61ZM52,53.74v-5.04s-11.1-.02-11.1-.02v-3.49s12.23,0,12.23,0v-5.44s-18.6,0-18.6,0v23.12s18.76,0,18.76,0v-5.46s-12.39,0-12.39,0l.04-3.63h11.05ZM74.03,39.74l-5.25,14.49-5.24-14.51-7.16.04,9.36,23.23h5.96s9.37-23.24,9.37-23.24h-7.04ZM102.4,53.74l.02-5.05h-11.07s0-3.5,0-3.5h12.22s-.03-5.45-.03-5.45h-18.57s0,23.11,0,23.11h18.75s-.01-5.46-.01-5.46l-12.4-.02.03-3.62h11.05ZM126.21,57.24h-11.14s0-17.5,0-17.5h-6.4s0,23.11,0,23.11h17.59s-.03-5.62-.03-5.62Z"/>
    <polygon class="cls-1" points="166.13 91.61 166.13 23.52 150.78 27.01 145.97 7.52 172.47 .01 190.99 0 190.99 91.59 166.13 91.61"/>
    <path class="cls-1" d="M18.48,13.34c1.91,1.08,2.69,3.01,2.71,5.06.03,2.48-1.15,4.56-3.38,5.68-1.55.68-3.24,1.14-5.02,1.14H.3S.3.69.3.69h12.08c1.51.01,2.96.47,4.27,1.06,2.02,1.09,3.16,3,3.17,5.28.01,2.24-1,4.11-3.11,5.31l1.77,1ZM14.43,7.73c-.11-1.22-1.2-2.22-2.63-2.24l-6.23-.07v5.16c2.63-.24,9.22,1.2,8.86-2.86M14.86,15.85c-.66-.46-1.66-.74-2.45-.74h-6.84s0,5.36,0,5.36l7.54-.05c1.1,0,2.19-.77,2.48-1.59.38-1.05.28-2.27-.75-2.99"/>
    <path class="cls-1" d="M58.41,12.37c2.91,1.33,4.36,2.66,4.51,5.83.13,2.63-1.17,4.84-3.54,5.96-1.54.65-3.2,1.06-4.95,1.06h-12.39s0-24.51,0-24.51h11.99c1.53-.01,2.99.43,4.32,1.02,2.06,1.08,3.2,3.01,3.22,5.31.03,2.29-1.1,4.18-3.15,5.33M56.18,7.9c-.12-3.63-6.21-2.16-8.86-2.46v5.17c2.7-.27,8.99,1.15,8.86-2.71M56.65,15.89c-.7-.51-1.75-.78-2.58-.78h-6.75s0,5.38,0,5.38l7.6-.07c1.05,0,2.12-.8,2.39-1.52.41-1.08.32-2.29-.67-3.01"/>
    <path class="cls-1" d="M84.65,12.36c3.13,1.28,4.61,2.83,4.64,6.19.02,2.47-1.28,4.52-3.53,5.61-1.47.6-3.06,1.05-4.73,1.06h-12.61s0-24.51,0-24.51h12.02c1.52,0,2.98.44,4.3,1.04,2.11,1.12,3.24,3.12,3.2,5.5-.04,2.24-1.23,4.21-3.28,5.13M82.55,7.9c-.12-3.63-6.19-2.16-8.86-2.46v5.17c2.73-.26,8.98,1.13,8.86-2.71M82.94,15.83c-.67-.45-1.68-.71-2.46-.71h-6.78s0,5.37,0,5.37c2.64,0,5.1.05,7.64-.08,1.13-.06,2.18-.86,2.42-1.67.32-1.07.2-2.22-.82-2.91"/>
    <polygon class="cls-1" points="136.29 15.28 124.72 15.3 124.72 20.41 138.02 20.44 138.01 25.23 119.33 25.23 119.33 .7 137.81 .68 137.85 5.49 124.72 5.51 124.72 10.46 136.26 10.47 136.29 15.28"/>
    <polygon class="cls-1" points="111.73 15.29 100.18 15.3 100.17 20.42 113.48 20.44 113.47 25.23 94.79 25.23 94.78 .7 113.28 .69 113.29 5.5 100.19 5.5 100.17 10.46 111.72 10.47 111.73 15.29"/>
    <path class="cls-1" d="M83.33,90.6c-.91.51-2.05.74-3.06.74h-6.26s0-12.74,0-12.74c2.35-.03,4.66-.09,6.99.07,1.5.1,2.75,1.16,3.05,2.36.36,1.47-.14,2.81-1.49,3.63,1.32.56,2.15,1.4,2.28,2.6.14,1.29-.2,2.61-1.5,3.34M80.15,83.66c.8-.02,1.24-.8,1.21-1.37-.03-.56-.6-1.2-1.27-1.21l-3.32-.03v2.69s3.39-.09,3.39-.09ZM80.86,88.8c.83-.02,1.26-.86,1.21-1.46-.05-.51-.61-1.19-1.24-1.21l-4.07-.07v2.82s4.1-.08,4.1-.08Z"/>
    <path class="cls-1" d="M40.58,91.25c-.81.07-1.54.08-2.41.07l-6.14-7.96-.05,7.96-2.75-.02v-12.73s2.6,0,2.6,0l5.96,7.82.02-7.81h2.77s0,12.66,0,12.66Z"/>
    <path class="cls-1" d="M135.27,91.35l-2.69-4.06-2.21-.03-.05,4.08-2.81-.05v-12.72s6.7.06,6.7.06c2.45.02,4.07,1.99,3.97,4.33-.08,1.78-1,3.15-2.7,3.82l3.01,4.51-3.23.06ZM133.64,84.72c1.17-.02,1.77-1.08,1.68-2.01-.09-.86-.82-1.57-1.85-1.58h-3.12s.03,3.65.03,3.65l3.27-.07Z"/>
    <path class="cls-1" d="M20.6,91.54c-3.92.25-7.02-2.47-7.24-6.16-.22-3.71,2.56-6.81,6.37-7.02,3.78-.21,6.91,2.41,7.18,6.06.27,3.69-2.39,6.87-6.31,7.12M23.98,84.79c-.1-2.38-1.98-3.97-4.12-3.83-2.1.14-3.63,1.93-3.55,4.13.08,2.24,1.8,3.9,3.92,3.86,2.16-.04,3.85-1.78,3.75-4.17"/>
    <path class="cls-1" d="M118.74,91.55c-3.94.17-6.96-2.64-7.09-6.34-.13-3.65,2.66-6.66,6.42-6.85,3.77-.19,6.89,2.44,7.14,6.08.26,3.74-2.49,6.94-6.47,7.11M122.27,84.79c-.1-2.38-1.98-3.96-4.1-3.83-2.14.13-3.65,1.91-3.58,4.14.07,2.24,1.81,3.91,3.95,3.86,2.14-.05,3.83-1.79,3.73-4.17"/>
    <path class="cls-1" d="M62.87,91.39l-2.76-4.09-2.21-.03-.03,4.06-2.79-.02v-12.72s6.65.04,6.65.04c2.42.02,4.17,1.98,3.98,4.33.02,1.78-1.01,3.17-2.69,3.82l3.04,4.49-3.18.11ZM61.15,84.73c1.2-.02,1.82-1.06,1.72-2.03-.09-.87-.84-1.57-1.9-1.57h-3.08s.03,3.65.03,3.65l3.24-.06Z"/>
    <path class="cls-1" d="M95.12,78.59l2.78-.02-.04,8.06c0,1.66-.89,3.32-2.32,4.11-1.98,1.09-4.48,1.1-6.45,0-1.49-.84-2.28-2.59-2.28-4.3l-.03-7.84h2.79s.06,7.79.06,7.79c.01,1.57,1.3,2.59,2.77,2.57,1.43-.02,2.65-1.01,2.66-2.53l.05-7.83Z"/>
    <path class="cls-1" d="M4.76,88.36c1.74,1.11,3.74.65,5.25-.88l1.83,1.73c-1.21,1.59-3.03,2.29-5.03,2.34-3.76.09-6.68-2.75-6.73-6.49-.05-3.81,2.9-6.77,6.73-6.71,1.88.03,3.55.5,4.95,1.97l-1.79,2.06c-1.48-1.4-3.39-1.92-5.09-.92-1.22.72-1.82,2.06-1.85,3.35-.03,1.33.46,2.74,1.73,3.55"/>
    <polygon class="cls-1" points="36.3 16.92 25.49 16.93 25.49 11.81 36.26 11.8 36.3 16.92"/>
    <polygon class="cls-1" points="106.37 91.28 103.57 91.3 103.55 81.18 99.74 81.17 99.72 78.57 110.21 78.57 110.25 81.15 106.38 81.19 106.37 91.28"/>
    <path class="cls-1" d="M49.23,91.26c-.93.07-1.77.08-2.8.04v-10.13s-3.87-.02-3.87-.02v-2.58s10.53,0,10.53,0l.02,2.58-3.87.02v10.09Z"/>
    <polygon class="cls-1" points="71.02 91.27 68.21 91.31 68.2 78.61 71.01 78.58 71.02 91.27"/>
  </g>
</svg>